<?xml version="1.0" encoding="UTF-8" standalone="no"?>
<!DOCTYPE svg PUBLIC "-//W3C//DTD SVG 1.1//EN"
 "http://www.w3.org/Graphics/SVG/1.1/DTD/svg11.dtd">
<!-- Generated by graphviz version 2.43.0 (0)
 -->
<!-- Title: MyVensim/test/funcional/funcional_tests.cpp Pages: 1 -->
<svg width="508pt" height="203pt"
 viewBox="0.00 0.00 508.00 203.00" xmlns="http://www.w3.org/2000/svg" xmlns:xlink="http://www.w3.org/1999/xlink">
<g id="graph0" class="graph" transform="scale(1 1) rotate(0) translate(4 199)">
<title>MyVensim/test/funcional/funcional_tests.cpp</title>
<!-- Node1 -->
<g id="Node000001" class="node">
<title>Node1</title>
<g id="a_Node000001"><a xlink:title="Functional tests for the model, systems, and flows.">
<polygon fill="#999999" stroke="#666666" points="344.5,-195 207.5,-195 207.5,-165 344.5,-165 344.5,-195"/>
<text text-anchor="start" x="215.5" y="-183" font-family="Helvetica,sans-Serif" font-size="10.00">MyVensim/test/funcional</text>
<text text-anchor="middle" x="276" y="-172" font-family="Helvetica,sans-Serif" font-size="10.00">/funcional_tests.cpp</text>
</a>
</g>
</g>
<!-- Node2 -->
<g id="Node000002" class="node">
<title>Node2</title>
<g id="a_Node000002"><a xlink:href="funcional__tests_8h_source.html" target="_top" xlink:title=" ">
<polygon fill="white" stroke="#666666" points="100,-129 0,-129 0,-110 100,-110 100,-129"/>
<text text-anchor="middle" x="50" y="-117" font-family="Helvetica,sans-Serif" font-size="10.00">funcional_tests.h</text>
</a>
</g>
</g>
<!-- Node1&#45;&gt;Node2 -->
<g id="edge1_Node000001_Node000002" class="edge">
<title>Node1&#45;&gt;Node2</title>
<g id="a_edge1_Node000001_Node000002"><a xlink:title=" ">
<path fill="none" stroke="#63b8ff" d="M221.87,-164.99C182.36,-154.76 129.53,-141.09 92.92,-131.61"/>
<polygon fill="#63b8ff" stroke="#63b8ff" points="93.6,-128.17 83.04,-129.05 91.85,-134.95 93.6,-128.17"/>
</a>
</g>
</g>
<!-- Node3 -->
<g id="Node000003" class="node">
<title>Node3</title>
<g id="a_Node000003"><a xlink:href="model_8h_source.html" target="_top" xlink:title=" ">
<polygon fill="white" stroke="#666666" points="210,-129 118,-129 118,-110 210,-110 210,-129"/>
<text text-anchor="middle" x="164" y="-117" font-family="Helvetica,sans-Serif" font-size="10.00">../../src/model.h</text>
</a>
</g>
</g>
<!-- Node1&#45;&gt;Node3 -->
<g id="edge2_Node000001_Node000003" class="edge">
<title>Node1&#45;&gt;Node3</title>
<g id="a_edge2_Node000001_Node000003"><a xlink:title=" ">
<path fill="none" stroke="#63b8ff" d="M249.17,-164.99C231.15,-155.58 207.54,-143.24 189.75,-133.95"/>
<polygon fill="#63b8ff" stroke="#63b8ff" points="191.02,-130.67 180.54,-129.14 187.78,-136.87 191.02,-130.67"/>
</a>
</g>
</g>
<!-- Node5 -->
<g id="Node000005" class="node">
<title>Node5</title>
<g id="a_Node000005"><a xlink:href="system_8h_source.html" target="_top" xlink:title=" ">
<polygon fill="white" stroke="#666666" points="256,-19 194,-19 194,0 256,0 256,-19"/>
<text text-anchor="middle" x="225" y="-7" font-family="Helvetica,sans-Serif" font-size="10.00">system.h</text>
</a>
</g>
</g>
<!-- Node1&#45;&gt;Node5 -->
<g id="edge7_Node000001_Node000005" class="edge">
<title>Node1&#45;&gt;Node5</title>
<g id="a_edge7_Node000001_Node000005"><a xlink:title=" ">
<path fill="none" stroke="#63b8ff" d="M275.95,-164.67C275.41,-140.97 272.32,-92.5 257,-55 252.88,-44.91 246.04,-34.94 239.74,-27"/>
<polygon fill="#63b8ff" stroke="#63b8ff" points="242.37,-24.69 233.26,-19.27 237,-29.19 242.37,-24.69"/>
</a>
</g>
</g>
<!-- Node6 -->
<g id="Node000006" class="node">
<title>Node6</title>
<g id="a_Node000006"><a xlink:href="flow_8h_source.html" target="_top" xlink:title=" ">
<polygon fill="white" stroke="#666666" points="247.5,-74 202.5,-74 202.5,-55 247.5,-55 247.5,-74"/>
<text text-anchor="middle" x="225" y="-62" font-family="Helvetica,sans-Serif" font-size="10.00">flow.h</text>
</a>
</g>
</g>
<!-- Node1&#45;&gt;Node6 -->
<g id="edge8_Node000001_Node000006" class="edge">
<title>Node1&#45;&gt;Node6</title>
<g id="a_edge8_Node000001_Node000006"><a xlink:title=" ">
<path fill="none" stroke="#63b8ff" d="M269.54,-164.63C260.29,-144.03 243.25,-106.12 233.15,-83.63"/>
<polygon fill="#63b8ff" stroke="#63b8ff" points="236.21,-81.92 228.92,-74.23 229.83,-84.79 236.21,-81.92"/>
</a>
</g>
</g>
<!-- Node7 -->
<g id="Node000007" class="node">
<title>Node7</title>
<g id="a_Node000007"><a xlink:title=" ">
<polygon fill="#e0e0e0" stroke="#999999" points="364,-129 304,-129 304,-110 364,-110 364,-129"/>
<text text-anchor="middle" x="334" y="-117" font-family="Helvetica,sans-Serif" font-size="10.00">iostream</text>
</a>
</g>
</g>
<!-- Node1&#45;&gt;Node7 -->
<g id="edge9_Node000001_Node000007" class="edge">
<title>Node1&#45;&gt;Node7</title>
<g id="a_edge9_Node000001_Node000007"><a xlink:title=" ">
<path fill="none" stroke="#63b8ff" d="M290.04,-164.84C298.55,-156.26 309.41,-145.3 318.22,-136.42"/>
<polygon fill="#63b8ff" stroke="#63b8ff" points="320.75,-138.83 325.31,-129.27 315.78,-133.9 320.75,-138.83"/>
</a>
</g>
</g>
<!-- Node8 -->
<g id="Node000008" class="node">
<title>Node8</title>
<g id="a_Node000008"><a xlink:title=" ">
<polygon fill="#e0e0e0" stroke="#999999" points="429.5,-129 382.5,-129 382.5,-110 429.5,-110 429.5,-129"/>
<text text-anchor="middle" x="406" y="-117" font-family="Helvetica,sans-Serif" font-size="10.00">cmath</text>
</a>
</g>
</g>
<!-- Node1&#45;&gt;Node8 -->
<g id="edge10_Node000001_Node000008" class="edge">
<title>Node1&#45;&gt;Node8</title>
<g id="a_edge10_Node000001_Node000008"><a xlink:title=" ">
<path fill="none" stroke="#63b8ff" d="M307.14,-164.99C328.54,-155.36 356.73,-142.67 377.53,-133.31"/>
<polygon fill="#63b8ff" stroke="#63b8ff" points="379.12,-136.43 386.8,-129.14 376.25,-130.05 379.12,-136.43"/>
</a>
</g>
</g>
<!-- Node9 -->
<g id="Node000009" class="node">
<title>Node9</title>
<g id="a_Node000009"><a xlink:title=" ">
<polygon fill="#e0e0e0" stroke="#999999" points="500,-129 448,-129 448,-110 500,-110 500,-129"/>
<text text-anchor="middle" x="474" y="-117" font-family="Helvetica,sans-Serif" font-size="10.00">cassert</text>
</a>
</g>
</g>
<!-- Node1&#45;&gt;Node9 -->
<g id="edge11_Node000001_Node000009" class="edge">
<title>Node1&#45;&gt;Node9</title>
<g id="a_edge11_Node000001_Node000009"><a xlink:title=" ">
<path fill="none" stroke="#63b8ff" d="M323.43,-164.99C358.63,-154.59 405.9,-140.62 438.02,-131.13"/>
<polygon fill="#63b8ff" stroke="#63b8ff" points="439.29,-134.41 447.89,-128.22 437.3,-127.69 439.29,-134.41"/>
</a>
</g>
</g>
<!-- Node4 -->
<g id="Node000004" class="node">
<title>Node4</title>
<g id="a_Node000004"><a xlink:title=" ">
<polygon fill="#e0e0e0" stroke="#999999" points="145.5,-74 98.5,-74 98.5,-55 145.5,-55 145.5,-74"/>
<text text-anchor="middle" x="122" y="-62" font-family="Helvetica,sans-Serif" font-size="10.00">vector</text>
</a>
</g>
</g>
<!-- Node3&#45;&gt;Node4 -->
<g id="edge3_Node000003_Node000004" class="edge">
<title>Node3&#45;&gt;Node4</title>
<g id="a_edge3_Node000003_Node000004"><a xlink:title=" ">
<path fill="none" stroke="#63b8ff" d="M157.06,-109.75C151.13,-102.26 142.43,-91.28 135.18,-82.13"/>
<polygon fill="#63b8ff" stroke="#63b8ff" points="137.76,-79.75 128.81,-74.09 132.27,-84.1 137.76,-79.75"/>
</a>
</g>
</g>
<!-- Node3&#45;&gt;Node5 -->
<g id="edge4_Node000003_Node000005" class="edge">
<title>Node3&#45;&gt;Node5</title>
<g id="a_edge4_Node000003_Node000005"><a xlink:title=" ">
<path fill="none" stroke="#63b8ff" d="M167.63,-109.64C172.87,-97.14 183.12,-73.78 194,-55 199.49,-45.53 206.38,-35.48 212.28,-27.34"/>
<polygon fill="#63b8ff" stroke="#63b8ff" points="215.25,-29.2 218.38,-19.08 209.62,-25.04 215.25,-29.2"/>
</a>
</g>
</g>
<!-- Node3&#45;&gt;Node6 -->
<g id="edge5_Node000003_Node000006" class="edge">
<title>Node3&#45;&gt;Node6</title>
<g id="a_edge5_Node000003_Node000006"><a xlink:title=" ">
<path fill="none" stroke="#63b8ff" d="M173.8,-109.98C182.82,-102.15 196.41,-90.34 207.32,-80.86"/>
<polygon fill="#63b8ff" stroke="#63b8ff" points="209.77,-83.37 215.02,-74.17 205.18,-78.09 209.77,-83.37"/>
</a>
</g>
</g>
<!-- Node6&#45;&gt;Node5 -->
<g id="edge6_Node000006_Node000005" class="edge">
<title>Node6&#45;&gt;Node5</title>
<g id="a_edge6_Node000006_Node000005"><a xlink:title=" ">
<path fill="none" stroke="#63b8ff" d="M225,-54.75C225,-47.8 225,-37.85 225,-29.13"/>
<polygon fill="#63b8ff" stroke="#63b8ff" points="228.5,-29.09 225,-19.09 221.5,-29.09 228.5,-29.09"/>
</a>
</g>
</g>
</g>
</svg>
